ISO-10303-21;
HEADER;
/* Generated by software containing ST-Developer
 * from STEP Tools, Inc. (www.steptools.com) 
 */

FILE_DESCRIPTION(
/* description */ (''),
/* implementation_level */ '2;1');

FILE_NAME(
/* name */ 'jigsaw wep lock.stp',
/* time_stamp */ '2026-02-13T12:55:02-05:00',
/* author */ ('sthad'),
/* organization */ (''),
/* preprocessor_version */ 'ST-DEVELOPER v20.1',
/* originating_system */ 'Autodesk Inventor 2026',
/* authorisation */ '');

FILE_SCHEMA (('AUTOMOTIVE_DESIGN { 1 0 10303 214 3 1 1 }'));
ENDSEC;

DATA;
#10=MECHANICAL_DESIGN_GEOMETRIC_PRESENTATION_REPRESENTATION('',(#13),#1013);
#11=SHAPE_REPRESENTATION_RELATIONSHIP('SRR','None',#1024,#12);
#12=ADVANCED_BREP_SHAPE_REPRESENTATION('',(#14),#1012);
#13=STYLED_ITEM('',(#1033),#14);
#14=MANIFOLD_SOLID_BREP('Solid1',#573);
#15=FACE_BOUND('',#79,.T.);
#16=ELLIPSE('',#613,0.0556776993060272,0.0393700787401575);
#17=ELLIPSE('',#614,0.0556776993060272,0.0393700787401575);
#18=ELLIPSE('',#615,0.0556776993060272,0.0393700787401575);
#19=ELLIPSE('',#616,0.0556776993060272,0.0393700787401575);
#20=ELLIPSE('',#618,0.0556776993060273,0.0393700787401575);
#21=ELLIPSE('',#619,0.0556776993060273,0.0393700787401575);
#22=ELLIPSE('',#620,0.0556776993060273,0.0393700787401575);
#23=ELLIPSE('',#621,0.0556776993060273,0.0393700787401575);
#24=PLANE('',#598);
#25=PLANE('',#606);
#26=PLANE('',#609);
#27=PLANE('',#610);
#28=PLANE('',#611);
#29=PLANE('',#612);
#30=PLANE('',#617);
#31=PLANE('',#625);
#32=PLANE('',#632);
#33=PLANE('',#638);
#34=PLANE('',#641);
#35=PLANE('',#644);
#36=PLANE('',#645);
#37=PLANE('',#658);
#38=PLANE('',#659);
#39=FACE_OUTER_BOUND('',#68,.T.);
#40=FACE_OUTER_BOUND('',#69,.T.);
#41=FACE_OUTER_BOUND('',#70,.T.);
#42=FACE_OUTER_BOUND('',#71,.T.);
#43=FACE_OUTER_BOUND('',#72,.T.);
#44=FACE_OUTER_BOUND('',#73,.T.);
#45=FACE_OUTER_BOUND('',#74,.T.);
#46=FACE_OUTER_BOUND('',#75,.T.);
#47=FACE_OUTER_BOUND('',#76,.T.);
#48=FACE_OUTER_BOUND('',#77,.T.);
#49=FACE_OUTER_BOUND('',#78,.T.);
#50=FACE_OUTER_BOUND('',#80,.T.);
#51=FACE_OUTER_BOUND('',#81,.T.);
#52=FACE_OUTER_BOUND('',#82,.T.);
#53=FACE_OUTER_BOUND('',#83,.T.);
#54=FACE_OUTER_BOUND('',#84,.T.);
#55=FACE_OUTER_BOUND('',#85,.T.);
#56=FACE_OUTER_BOUND('',#86,.T.);
#57=FACE_OUTER_BOUND('',#87,.T.);
#58=FACE_OUTER_BOUND('',#88,.T.);
#59=FACE_OUTER_BOUND('',#89,.T.);
#60=FACE_OUTER_BOUND('',#90,.T.);
#61=FACE_OUTER_BOUND('',#91,.T.);
#62=FACE_OUTER_BOUND('',#92,.T.);
#63=FACE_OUTER_BOUND('',#93,.T.);
#64=FACE_OUTER_BOUND('',#94,.T.);
#65=FACE_OUTER_BOUND('',#95,.T.);
#66=FACE_OUTER_BOUND('',#96,.T.);
#67=FACE_OUTER_BOUND('',#97,.T.);
#68=EDGE_LOOP('',(#362,#363,#364,#365));
#69=EDGE_LOOP('',(#366,#367,#368,#369,#370,#371,#372,#373,#374,#375,#376,
#377,#378,#379));
#70=EDGE_LOOP('',(#380,#381,#382,#383));
#71=EDGE_LOOP('',(#384,#385,#386,#387));
#72=EDGE_LOOP('',(#388,#389,#390,#391));
#73=EDGE_LOOP('',(#392,#393,#394,#395));
#74=EDGE_LOOP('',(#396,#397,#398,#399));
#75=EDGE_LOOP('',(#400,#401,#402,#403,#404,#405,#406,#407));
#76=EDGE_LOOP('',(#408,#409,#410,#411,#412,#413,#414,#415));
#77=EDGE_LOOP('',(#416,#417,#418,#419,#420,#421));
#78=EDGE_LOOP('',(#422,#423,#424,#425));
#79=EDGE_LOOP('',(#426,#427,#428,#429));
#80=EDGE_LOOP('',(#430,#431,#432,#433,#434,#435));
#81=EDGE_LOOP('',(#436,#437,#438,#439));
#82=EDGE_LOOP('',(#440,#441,#442,#443,#444,#445,#446,#447,#448,#449));
#83=EDGE_LOOP('',(#450,#451,#452,#453,#454,#455));
#84=EDGE_LOOP('',(#456,#457,#458,#459));
#85=EDGE_LOOP('',(#460,#461,#462,#463,#464,#465));
#86=EDGE_LOOP('',(#466,#467,#468,#469));
#87=EDGE_LOOP('',(#470,#471,#472,#473));
#88=EDGE_LOOP('',(#474,#475,#476,#477));
#89=EDGE_LOOP('',(#478,#479,#480,#481,#482,#483,#484,#485,#486,#487));
#90=EDGE_LOOP('',(#488,#489,#490,#491));
#91=EDGE_LOOP('',(#492,#493,#494,#495));
#92=EDGE_LOOP('',(#496,#497,#498,#499));
#93=EDGE_LOOP('',(#500,#501,#502,#503));
#94=EDGE_LOOP('',(#504,#505,#506,#507));
#95=EDGE_LOOP('',(#508,#509,#510,#511));
#96=EDGE_LOOP('',(#512,#513,#514,#515));
#97=EDGE_LOOP('',(#516,#517,#518,#519,#520,#521,#522,#523,#524,#525,#526,
#527,#528,#529));
#98=LINE('',#846,#146);
#99=LINE('',#849,#147);
#100=LINE('',#852,#148);
#101=LINE('',#854,#149);
#102=LINE('',#856,#150);
#103=LINE('',#862,#151);
#104=LINE('',#870,#152);
#105=LINE('',#875,#153);
#106=LINE('',#878,#154);
#107=LINE('',#879,#155);
#108=LINE('',#882,#156);
#109=LINE('',#885,#157);
#110=LINE('',#887,#158);
#111=LINE('',#890,#159);
#112=LINE('',#891,#160);
#113=LINE('',#894,#161);
#114=LINE('',#895,#162);
#115=LINE('',#901,#163);
#116=LINE('',#905,#164);
#117=LINE('',#909,#165);
#118=LINE('',#912,#166);
#119=LINE('',#918,#167);
#120=LINE('',#922,#168);
#121=LINE('',#926,#169);
#122=LINE('',#929,#170);
#123=LINE('',#933,#171);
#124=LINE('',#936,#172);
#125=LINE('',#939,#173);
#126=LINE('',#941,#174);
#127=LINE('',#942,#175);
#128=LINE('',#943,#176);
#129=LINE('',#948,#177);
#130=LINE('',#954,#178);
#131=LINE('',#960,#179);
#132=LINE('',#964,#180);
#133=LINE('',#966,#181);
#134=LINE('',#969,#182);
#135=LINE('',#972,#183);
#136=LINE('',#973,#184);
#137=LINE('',#976,#185);
#138=LINE('',#981,#186);
#139=LINE('',#983,#187);
#140=LINE('',#987,#188);
#141=LINE('',#990,#189);
#142=LINE('',#997,#190);
#143=LINE('',#998,#191);
#144=LINE('',#1002,#192);
#145=LINE('',#1008,#193);
#146=VECTOR('',#666,0.393700787401575);
#147=VECTOR('',#669,0.393700787401575);
#148=VECTOR('',#672,0.393700787401575);
#149=VECTOR('',#673,0.393700787401575);
#150=VECTOR('',#674,0.393700787401575);
#151=VECTOR('',#679,0.393700787401575);
#152=VECTOR('',#686,0.393700787401575);
#153=VECTOR('',#691,0.393700787401575);
#154=VECTOR('',#694,0.393700787401575);
#155=VECTOR('',#695,0.393700787401575);
#156=VECTOR('',#698,0.118110236220472);
#157=VECTOR('',#701,0.118110236220472);
#158=VECTOR('',#704,0.393700787401575);
#159=VECTOR('',#707,0.393700787401575);
#160=VECTOR('',#708,0.393700787401575);
#161=VECTOR('',#711,0.393700787401575);
#162=VECTOR('',#712,0.393700787401575);
#163=VECTOR('',#717,0.393700787401575);
#164=VECTOR('',#720,0.393700787401575);
#165=VECTOR('',#723,0.393700787401575);
#166=VECTOR('',#726,0.393700787401575);
#167=VECTOR('',#731,0.393700787401575);
#168=VECTOR('',#734,0.393700787401575);
#169=VECTOR('',#737,0.393700787401575);
#170=VECTOR('',#740,0.393700787401575);
#171=VECTOR('',#745,0.393700787401575);
#172=VECTOR('',#748,0.393700787401575);
#173=VECTOR('',#751,0.393700787401575);
#174=VECTOR('',#752,0.393700787401575);
#175=VECTOR('',#753,0.393700787401575);
#176=VECTOR('',#754,0.393700787401575);
#177=VECTOR('',#759,0.393700787401575);
#178=VECTOR('',#766,0.393700787401575);
#179=VECTOR('',#773,0.393700787401575);
#180=VECTOR('',#778,0.393700787401575);
#181=VECTOR('',#781,0.393700787401575);
#182=VECTOR('',#784,0.393700787401575);
#183=VECTOR('',#787,0.393700787401575);
#184=VECTOR('',#788,0.393700787401575);
#185=VECTOR('',#793,0.393700787401575);
#186=VECTOR('',#800,0.393700787401575);
#187=VECTOR('',#803,0.393700787401575);
#188=VECTOR('',#808,0.393700787401575);
#189=VECTOR('',#811,0.393700787401575);
#190=VECTOR('',#820,0.393700787401575);
#191=VECTOR('',#821,0.393700787401575);
#192=VECTOR('',#826,0.393700787401575);
#193=VECTOR('',#837,0.393700787401575);
#194=CIRCLE('',#596,0.0393700787401575);
#195=CIRCLE('',#597,0.0393700787401575);
#196=CIRCLE('',#599,1.0625);
#197=CIRCLE('',#600,0.393700787401575);
#198=CIRCLE('',#601,0.078740157480315);
#199=CIRCLE('',#602,0.761564960629921);
#200=CIRCLE('',#603,0.078740157480315);
#201=CIRCLE('',#604,0.0787401574803149);
#202=CIRCLE('',#605,0.118110236220472);
#203=CIRCLE('',#608,0.118110236220472);
#204=CIRCLE('',#623,0.0393700787401575);
#205=CIRCLE('',#624,0.0393700787401575);
#206=CIRCLE('',#627,0.0393700787401575);
#207=CIRCLE('',#628,0.0393700787401575);
#208=CIRCLE('',#630,0.0669291338582676);
#209=CIRCLE('',#631,0.0669291338582676);
#210=CIRCLE('',#633,0.0393700787401575);
#211=CIRCLE('',#634,0.0393700787401575);
#212=CIRCLE('',#635,0.0669291338582676);
#213=CIRCLE('',#637,0.0393700787401575);
#214=CIRCLE('',#640,0.0393700787401575);
#215=CIRCLE('',#643,0.0669291338582676);
#216=CIRCLE('',#647,0.393700787401575);
#217=CIRCLE('',#649,1.0625);
#218=CIRCLE('',#651,0.078740157480315);
#219=CIRCLE('',#653,0.761564960629921);
#220=CIRCLE('',#655,0.078740157480315);
#221=CIRCLE('',#657,0.0787401574803149);
#222=VERTEX_POINT('',#842);
#223=VERTEX_POINT('',#843);
#224=VERTEX_POINT('',#845);
#225=VERTEX_POINT('',#847);
#226=VERTEX_POINT('',#851);
#227=VERTEX_POINT('',#853);
#228=VERTEX_POINT('',#855);
#229=VERTEX_POINT('',#857);
#230=VERTEX_POINT('',#859);
#231=VERTEX_POINT('',#861);
#232=VERTEX_POINT('',#863);
#233=VERTEX_POINT('',#865);
#234=VERTEX_POINT('',#867);
#235=VERTEX_POINT('',#869);
#236=VERTEX_POINT('',#871);
#237=VERTEX_POINT('',#873);
#238=VERTEX_POINT('',#877);
#239=VERTEX_POINT('',#881);
#240=VERTEX_POINT('',#883);
#241=VERTEX_POINT('',#889);
#242=VERTEX_POINT('',#893);
#243=VERTEX_POINT('',#897);
#244=VERTEX_POINT('',#898);
#245=VERTEX_POINT('',#900);
#246=VERTEX_POINT('',#902);
#247=VERTEX_POINT('',#904);
#248=VERTEX_POINT('',#906);
#249=VERTEX_POINT('',#908);
#250=VERTEX_POINT('',#910);
#251=VERTEX_POINT('',#914);
#252=VERTEX_POINT('',#915);
#253=VERTEX_POINT('',#917);
#254=VERTEX_POINT('',#919);
#255=VERTEX_POINT('',#921);
#256=VERTEX_POINT('',#923);
#257=VERTEX_POINT('',#925);
#258=VERTEX_POINT('',#927);
#259=VERTEX_POINT('',#931);
#260=VERTEX_POINT('',#934);
#261=VERTEX_POINT('',#938);
#262=VERTEX_POINT('',#940);
#263=VERTEX_POINT('',#945);
#264=VERTEX_POINT('',#947);
#265=VERTEX_POINT('',#951);
#266=VERTEX_POINT('',#953);
#267=VERTEX_POINT('',#957);
#268=VERTEX_POINT('',#959);
#269=VERTEX_POINT('',#962);
#270=VERTEX_POINT('',#967);
#271=VERTEX_POINT('',#971);
#272=VERTEX_POINT('',#979);
#273=VERTEX_POINT('',#986);
#274=VERTEX_POINT('',#988);
#275=VERTEX_POINT('',#994);
#276=VERTEX_POINT('',#995);
#277=VERTEX_POINT('',#1000);
#278=EDGE_CURVE('',#222,#223,#194,.T.);
#279=EDGE_CURVE('',#223,#224,#98,.T.);
#280=EDGE_CURVE('',#224,#225,#195,.T.);
#281=EDGE_CURVE('',#225,#222,#99,.T.);
#282=EDGE_CURVE('',#222,#226,#100,.T.);
#283=EDGE_CURVE('',#226,#227,#101,.T.);
#284=EDGE_CURVE('',#228,#227,#102,.T.);
#285=EDGE_CURVE('',#229,#228,#196,.T.);
#286=EDGE_CURVE('',#230,#229,#197,.T.);
#287=EDGE_CURVE('',#231,#230,#103,.T.);
#288=EDGE_CURVE('',#232,#231,#198,.T.);
#289=EDGE_CURVE('',#233,#232,#199,.T.);
#290=EDGE_CURVE('',#234,#233,#200,.T.);
#291=EDGE_CURVE('',#235,#234,#104,.T.);
#292=EDGE_CURVE('',#236,#235,#201,.T.);
#293=EDGE_CURVE('',#237,#236,#202,.T.);
#294=EDGE_CURVE('',#237,#223,#105,.T.);
#295=EDGE_CURVE('',#238,#225,#106,.T.);
#296=EDGE_CURVE('',#238,#226,#107,.T.);
#297=EDGE_CURVE('',#236,#239,#108,.T.);
#298=EDGE_CURVE('',#240,#239,#203,.F.);
#299=EDGE_CURVE('',#240,#237,#109,.T.);
#300=EDGE_CURVE('',#224,#240,#110,.T.);
#301=EDGE_CURVE('',#241,#238,#111,.T.);
#302=EDGE_CURVE('',#227,#241,#112,.T.);
#303=EDGE_CURVE('',#242,#241,#113,.T.);
#304=EDGE_CURVE('',#228,#242,#114,.T.);
#305=EDGE_CURVE('',#243,#244,#16,.T.);
#306=EDGE_CURVE('',#244,#245,#115,.T.);
#307=EDGE_CURVE('',#246,#245,#17,.F.);
#308=EDGE_CURVE('',#246,#247,#116,.T.);
#309=EDGE_CURVE('',#247,#248,#18,.T.);
#310=EDGE_CURVE('',#248,#249,#117,.T.);
#311=EDGE_CURVE('',#249,#250,#19,.T.);
#312=EDGE_CURVE('',#250,#243,#118,.T.);
#313=EDGE_CURVE('',#251,#252,#20,.T.);
#314=EDGE_CURVE('',#252,#253,#119,.T.);
#315=EDGE_CURVE('',#254,#253,#21,.F.);
#316=EDGE_CURVE('',#254,#255,#120,.T.);
#317=EDGE_CURVE('',#255,#256,#22,.T.);
#318=EDGE_CURVE('',#256,#257,#121,.T.);
#319=EDGE_CURVE('',#257,#258,#23,.T.);
#320=EDGE_CURVE('',#258,#251,#122,.T.);
#321=EDGE_CURVE('',#259,#250,#204,.T.);
#322=EDGE_CURVE('',#249,#256,#123,.T.);
#323=EDGE_CURVE('',#255,#260,#205,.T.);
#324=EDGE_CURVE('',#260,#259,#124,.T.);
#325=EDGE_CURVE('',#261,#234,#125,.T.);
#326=EDGE_CURVE('',#262,#261,#126,.T.);
#327=EDGE_CURVE('',#235,#262,#127,.T.);
#328=EDGE_CURVE('',#257,#248,#128,.T.);
#329=EDGE_CURVE('',#247,#263,#206,.T.);
#330=EDGE_CURVE('',#263,#264,#129,.T.);
#331=EDGE_CURVE('',#264,#258,#207,.T.);
#332=EDGE_CURVE('',#265,#263,#208,.T.);
#333=EDGE_CURVE('',#265,#266,#130,.T.);
#334=EDGE_CURVE('',#264,#266,#209,.T.);
#335=EDGE_CURVE('',#246,#267,#210,.T.);
#336=EDGE_CURVE('',#267,#268,#131,.T.);
#337=EDGE_CURVE('',#268,#243,#211,.T.);
#338=EDGE_CURVE('',#259,#269,#212,.T.);
#339=EDGE_CURVE('',#269,#265,#132,.T.);
#340=EDGE_CURVE('',#252,#245,#133,.T.);
#341=EDGE_CURVE('',#270,#251,#213,.T.);
#342=EDGE_CURVE('',#267,#270,#134,.T.);
#343=EDGE_CURVE('',#271,#270,#135,.T.);
#344=EDGE_CURVE('',#268,#271,#136,.T.);
#345=EDGE_CURVE('',#254,#271,#214,.T.);
#346=EDGE_CURVE('',#244,#253,#137,.T.);
#347=EDGE_CURVE('',#272,#260,#215,.T.);
#348=EDGE_CURVE('',#269,#272,#138,.T.);
#349=EDGE_CURVE('',#266,#272,#139,.T.);
#350=EDGE_CURVE('',#229,#273,#140,.T.);
#351=EDGE_CURVE('',#273,#274,#216,.T.);
#352=EDGE_CURVE('',#274,#230,#141,.T.);
#353=EDGE_CURVE('',#273,#242,#217,.T.);
#354=EDGE_CURVE('',#275,#276,#218,.T.);
#355=EDGE_CURVE('',#276,#232,#142,.T.);
#356=EDGE_CURVE('',#231,#275,#143,.T.);
#357=EDGE_CURVE('',#277,#276,#219,.T.);
#358=EDGE_CURVE('',#233,#277,#144,.T.);
#359=EDGE_CURVE('',#277,#261,#220,.T.);
#360=EDGE_CURVE('',#262,#239,#221,.T.);
#361=EDGE_CURVE('',#275,#274,#145,.T.);
#362=ORIENTED_EDGE('',*,*,#278,.T.);
#363=ORIENTED_EDGE('',*,*,#279,.T.);
#364=ORIENTED_EDGE('',*,*,#280,.T.);
#365=ORIENTED_EDGE('',*,*,#281,.T.);
#366=ORIENTED_EDGE('',*,*,#278,.F.);
#367=ORIENTED_EDGE('',*,*,#282,.T.);
#368=ORIENTED_EDGE('',*,*,#283,.T.);
#369=ORIENTED_EDGE('',*,*,#284,.F.);
#370=ORIENTED_EDGE('',*,*,#285,.F.);
#371=ORIENTED_EDGE('',*,*,#286,.F.);
#372=ORIENTED_EDGE('',*,*,#287,.F.);
#373=ORIENTED_EDGE('',*,*,#288,.F.);
#374=ORIENTED_EDGE('',*,*,#289,.F.);
#375=ORIENTED_EDGE('',*,*,#290,.F.);
#376=ORIENTED_EDGE('',*,*,#291,.F.);
#377=ORIENTED_EDGE('',*,*,#292,.F.);
#378=ORIENTED_EDGE('',*,*,#293,.F.);
#379=ORIENTED_EDGE('',*,*,#294,.T.);
#380=ORIENTED_EDGE('',*,*,#281,.F.);
#381=ORIENTED_EDGE('',*,*,#295,.F.);
#382=ORIENTED_EDGE('',*,*,#296,.T.);
#383=ORIENTED_EDGE('',*,*,#282,.F.);
#384=ORIENTED_EDGE('',*,*,#293,.T.);
#385=ORIENTED_EDGE('',*,*,#297,.T.);
#386=ORIENTED_EDGE('',*,*,#298,.F.);
#387=ORIENTED_EDGE('',*,*,#299,.T.);
#388=ORIENTED_EDGE('',*,*,#279,.F.);
#389=ORIENTED_EDGE('',*,*,#294,.F.);
#390=ORIENTED_EDGE('',*,*,#299,.F.);
#391=ORIENTED_EDGE('',*,*,#300,.F.);
#392=ORIENTED_EDGE('',*,*,#301,.F.);
#393=ORIENTED_EDGE('',*,*,#302,.F.);
#394=ORIENTED_EDGE('',*,*,#283,.F.);
#395=ORIENTED_EDGE('',*,*,#296,.F.);
#396=ORIENTED_EDGE('',*,*,#302,.T.);
#397=ORIENTED_EDGE('',*,*,#303,.F.);
#398=ORIENTED_EDGE('',*,*,#304,.F.);
#399=ORIENTED_EDGE('',*,*,#284,.T.);
#400=ORIENTED_EDGE('',*,*,#305,.T.);
#401=ORIENTED_EDGE('',*,*,#306,.T.);
#402=ORIENTED_EDGE('',*,*,#307,.F.);
#403=ORIENTED_EDGE('',*,*,#308,.T.);
#404=ORIENTED_EDGE('',*,*,#309,.T.);
#405=ORIENTED_EDGE('',*,*,#310,.T.);
#406=ORIENTED_EDGE('',*,*,#311,.T.);
#407=ORIENTED_EDGE('',*,*,#312,.T.);
#408=ORIENTED_EDGE('',*,*,#313,.T.);
#409=ORIENTED_EDGE('',*,*,#314,.T.);
#410=ORIENTED_EDGE('',*,*,#315,.F.);
#411=ORIENTED_EDGE('',*,*,#316,.T.);
#412=ORIENTED_EDGE('',*,*,#317,.T.);
#413=ORIENTED_EDGE('',*,*,#318,.T.);
#414=ORIENTED_EDGE('',*,*,#319,.T.);
#415=ORIENTED_EDGE('',*,*,#320,.T.);
#416=ORIENTED_EDGE('',*,*,#321,.T.);
#417=ORIENTED_EDGE('',*,*,#311,.F.);
#418=ORIENTED_EDGE('',*,*,#322,.T.);
#419=ORIENTED_EDGE('',*,*,#317,.F.);
#420=ORIENTED_EDGE('',*,*,#323,.T.);
#421=ORIENTED_EDGE('',*,*,#324,.T.);
#422=ORIENTED_EDGE('',*,*,#325,.F.);
#423=ORIENTED_EDGE('',*,*,#326,.F.);
#424=ORIENTED_EDGE('',*,*,#327,.F.);
#425=ORIENTED_EDGE('',*,*,#291,.T.);
#426=ORIENTED_EDGE('',*,*,#328,.F.);
#427=ORIENTED_EDGE('',*,*,#318,.F.);
#428=ORIENTED_EDGE('',*,*,#322,.F.);
#429=ORIENTED_EDGE('',*,*,#310,.F.);
#430=ORIENTED_EDGE('',*,*,#329,.T.);
#431=ORIENTED_EDGE('',*,*,#330,.T.);
#432=ORIENTED_EDGE('',*,*,#331,.T.);
#433=ORIENTED_EDGE('',*,*,#319,.F.);
#434=ORIENTED_EDGE('',*,*,#328,.T.);
#435=ORIENTED_EDGE('',*,*,#309,.F.);
#436=ORIENTED_EDGE('',*,*,#330,.F.);
#437=ORIENTED_EDGE('',*,*,#332,.F.);
#438=ORIENTED_EDGE('',*,*,#333,.T.);
#439=ORIENTED_EDGE('',*,*,#334,.F.);
#440=ORIENTED_EDGE('',*,*,#308,.F.);
#441=ORIENTED_EDGE('',*,*,#335,.T.);
#442=ORIENTED_EDGE('',*,*,#336,.T.);
#443=ORIENTED_EDGE('',*,*,#337,.T.);
#444=ORIENTED_EDGE('',*,*,#312,.F.);
#445=ORIENTED_EDGE('',*,*,#321,.F.);
#446=ORIENTED_EDGE('',*,*,#338,.T.);
#447=ORIENTED_EDGE('',*,*,#339,.T.);
#448=ORIENTED_EDGE('',*,*,#332,.T.);
#449=ORIENTED_EDGE('',*,*,#329,.F.);
#450=ORIENTED_EDGE('',*,*,#340,.F.);
#451=ORIENTED_EDGE('',*,*,#313,.F.);
#452=ORIENTED_EDGE('',*,*,#341,.F.);
#453=ORIENTED_EDGE('',*,*,#342,.F.);
#454=ORIENTED_EDGE('',*,*,#335,.F.);
#455=ORIENTED_EDGE('',*,*,#307,.T.);
#456=ORIENTED_EDGE('',*,*,#342,.T.);
#457=ORIENTED_EDGE('',*,*,#343,.F.);
#458=ORIENTED_EDGE('',*,*,#344,.F.);
#459=ORIENTED_EDGE('',*,*,#336,.F.);
#460=ORIENTED_EDGE('',*,*,#344,.T.);
#461=ORIENTED_EDGE('',*,*,#345,.F.);
#462=ORIENTED_EDGE('',*,*,#315,.T.);
#463=ORIENTED_EDGE('',*,*,#346,.F.);
#464=ORIENTED_EDGE('',*,*,#305,.F.);
#465=ORIENTED_EDGE('',*,*,#337,.F.);
#466=ORIENTED_EDGE('',*,*,#346,.T.);
#467=ORIENTED_EDGE('',*,*,#314,.F.);
#468=ORIENTED_EDGE('',*,*,#340,.T.);
#469=ORIENTED_EDGE('',*,*,#306,.F.);
#470=ORIENTED_EDGE('',*,*,#324,.F.);
#471=ORIENTED_EDGE('',*,*,#347,.F.);
#472=ORIENTED_EDGE('',*,*,#348,.F.);
#473=ORIENTED_EDGE('',*,*,#338,.F.);
#474=ORIENTED_EDGE('',*,*,#348,.T.);
#475=ORIENTED_EDGE('',*,*,#349,.F.);
#476=ORIENTED_EDGE('',*,*,#333,.F.);
#477=ORIENTED_EDGE('',*,*,#339,.F.);
#478=ORIENTED_EDGE('',*,*,#316,.F.);
#479=ORIENTED_EDGE('',*,*,#345,.T.);
#480=ORIENTED_EDGE('',*,*,#343,.T.);
#481=ORIENTED_EDGE('',*,*,#341,.T.);
#482=ORIENTED_EDGE('',*,*,#320,.F.);
#483=ORIENTED_EDGE('',*,*,#331,.F.);
#484=ORIENTED_EDGE('',*,*,#334,.T.);
#485=ORIENTED_EDGE('',*,*,#349,.T.);
#486=ORIENTED_EDGE('',*,*,#347,.T.);
#487=ORIENTED_EDGE('',*,*,#323,.F.);
#488=ORIENTED_EDGE('',*,*,#286,.T.);
#489=ORIENTED_EDGE('',*,*,#350,.T.);
#490=ORIENTED_EDGE('',*,*,#351,.T.);
#491=ORIENTED_EDGE('',*,*,#352,.T.);
#492=ORIENTED_EDGE('',*,*,#350,.F.);
#493=ORIENTED_EDGE('',*,*,#285,.T.);
#494=ORIENTED_EDGE('',*,*,#304,.T.);
#495=ORIENTED_EDGE('',*,*,#353,.F.);
#496=ORIENTED_EDGE('',*,*,#354,.T.);
#497=ORIENTED_EDGE('',*,*,#355,.T.);
#498=ORIENTED_EDGE('',*,*,#288,.T.);
#499=ORIENTED_EDGE('',*,*,#356,.T.);
#500=ORIENTED_EDGE('',*,*,#355,.F.);
#501=ORIENTED_EDGE('',*,*,#357,.F.);
#502=ORIENTED_EDGE('',*,*,#358,.F.);
#503=ORIENTED_EDGE('',*,*,#289,.T.);
#504=ORIENTED_EDGE('',*,*,#359,.T.);
#505=ORIENTED_EDGE('',*,*,#325,.T.);
#506=ORIENTED_EDGE('',*,*,#290,.T.);
#507=ORIENTED_EDGE('',*,*,#358,.T.);
#508=ORIENTED_EDGE('',*,*,#297,.F.);
#509=ORIENTED_EDGE('',*,*,#292,.T.);
#510=ORIENTED_EDGE('',*,*,#327,.T.);
#511=ORIENTED_EDGE('',*,*,#360,.T.);
#512=ORIENTED_EDGE('',*,*,#352,.F.);
#513=ORIENTED_EDGE('',*,*,#361,.F.);
#514=ORIENTED_EDGE('',*,*,#356,.F.);
#515=ORIENTED_EDGE('',*,*,#287,.T.);
#516=ORIENTED_EDGE('',*,*,#280,.F.);
#517=ORIENTED_EDGE('',*,*,#300,.T.);
#518=ORIENTED_EDGE('',*,*,#298,.T.);
#519=ORIENTED_EDGE('',*,*,#360,.F.);
#520=ORIENTED_EDGE('',*,*,#326,.T.);
#521=ORIENTED_EDGE('',*,*,#359,.F.);
#522=ORIENTED_EDGE('',*,*,#357,.T.);
#523=ORIENTED_EDGE('',*,*,#354,.F.);
#524=ORIENTED_EDGE('',*,*,#361,.T.);
#525=ORIENTED_EDGE('',*,*,#351,.F.);
#526=ORIENTED_EDGE('',*,*,#353,.T.);
#527=ORIENTED_EDGE('',*,*,#303,.T.);
#528=ORIENTED_EDGE('',*,*,#301,.T.);
#529=ORIENTED_EDGE('',*,*,#295,.T.);
#530=CYLINDRICAL_SURFACE('',#595,0.0393700787401575);
#531=CYLINDRICAL_SURFACE('',#607,0.118110236220472);
#532=CYLINDRICAL_SURFACE('',#622,0.0393700787401575);
#533=CYLINDRICAL_SURFACE('',#626,0.0393700787401575);
#534=CYLINDRICAL_SURFACE('',#629,0.0669291338582676);
#535=CYLINDRICAL_SURFACE('',#636,0.0393700787401575);
#536=CYLINDRICAL_SURFACE('',#639,0.0393700787401575);
#537=CYLINDRICAL_SURFACE('',#642,0.0669291338582676);
#538=CYLINDRICAL_SURFACE('',#646,0.393700787401575);
#539=CYLINDRICAL_SURFACE('',#648,1.0625);
#540=CYLINDRICAL_SURFACE('',#650,0.078740157480315);
#541=CYLINDRICAL_SURFACE('',#652,0.761564960629921);
#542=CYLINDRICAL_SURFACE('',#654,0.078740157480315);
#543=CYLINDRICAL_SURFACE('',#656,0.0787401574803149);
#544=ADVANCED_FACE('',(#39),#530,.T.);
#545=ADVANCED_FACE('',(#40),#24,.F.);
#546=ADVANCED_FACE('',(#41),#25,.T.);
#547=ADVANCED_FACE('',(#42),#531,.F.);
#548=ADVANCED_FACE('',(#43),#26,.T.);
#549=ADVANCED_FACE('',(#44),#27,.T.);
#550=ADVANCED_FACE('',(#45),#28,.T.);
#551=ADVANCED_FACE('',(#46),#29,.T.);
#552=ADVANCED_FACE('',(#47),#30,.T.);
#553=ADVANCED_FACE('',(#48),#532,.F.);
#554=ADVANCED_FACE('',(#49,#15),#31,.T.);
#555=ADVANCED_FACE('',(#50),#533,.F.);
#556=ADVANCED_FACE('',(#51),#534,.T.);
#557=ADVANCED_FACE('',(#52),#32,.F.);
#558=ADVANCED_FACE('',(#53),#535,.F.);
#559=ADVANCED_FACE('',(#54),#33,.T.);
#560=ADVANCED_FACE('',(#55),#536,.F.);
#561=ADVANCED_FACE('',(#56),#34,.T.);
#562=ADVANCED_FACE('',(#57),#537,.T.);
#563=ADVANCED_FACE('',(#58),#35,.T.);
#564=ADVANCED_FACE('',(#59),#36,.T.);
#565=ADVANCED_FACE('',(#60),#538,.T.);
#566=ADVANCED_FACE('',(#61),#539,.T.);
#567=ADVANCED_FACE('',(#62),#540,.T.);
#568=ADVANCED_FACE('',(#63),#541,.F.);
#569=ADVANCED_FACE('',(#64),#542,.T.);
#570=ADVANCED_FACE('',(#65),#543,.T.);
#571=ADVANCED_FACE('',(#66),#37,.T.);
#572=ADVANCED_FACE('',(#67),#38,.T.);
#573=CLOSED_SHELL('',(#544,#545,#546,#547,#548,#549,#550,#551,#552,#553,
#554,#555,#556,#557,#558,#559,#560,#561,#562,#563,#564,#565,#566,#567,#568,
#569,#570,#571,#572));
#574=DERIVED_UNIT_ELEMENT(#576,1.);
#575=DERIVED_UNIT_ELEMENT(#1018,-3.);
#576=(
CONVERSION_BASED_UNIT('gram',#578)
MASS_UNIT()
NAMED_UNIT(#1015)
);
#577=(
MASS_UNIT()
NAMED_UNIT(*)
SI_UNIT(.KILO.,.GRAM.)
);
#578=MASS_MEASURE_WITH_UNIT(MASS_MEASURE(0.001),#577);
#579=DERIVED_UNIT((#574,#575));
#580=MEASURE_REPRESENTATION_ITEM('density measure',
POSITIVE_RATIO_MEASURE(1.),#579);
#581=PROPERTY_DEFINITION_REPRESENTATION(#586,#583);
#582=PROPERTY_DEFINITION_REPRESENTATION(#587,#584);
#583=REPRESENTATION('material name',(#585),#1012);
#584=REPRESENTATION('density',(#580),#1012);
#585=DESCRIPTIVE_REPRESENTATION_ITEM('Generic','Generic');
#586=PROPERTY_DEFINITION('material property','material name',#1026);
#587=PROPERTY_DEFINITION('material property','density of part',#1026);
#588=DATE_TIME_ROLE('creation_date');
#589=APPLIED_DATE_AND_TIME_ASSIGNMENT(#590,#588,(#1026));
#590=DATE_AND_TIME(#591,#592);
#591=CALENDAR_DATE(2026,13,2);
#592=LOCAL_TIME(0,0,0.,#593);
#593=COORDINATED_UNIVERSAL_TIME_OFFSET(0,0,.BEHIND.);
#594=AXIS2_PLACEMENT_3D('',#840,#660,#661);
#595=AXIS2_PLACEMENT_3D('',#841,#662,#663);
#596=AXIS2_PLACEMENT_3D('',#844,#664,#665);
#597=AXIS2_PLACEMENT_3D('',#848,#667,#668);
#598=AXIS2_PLACEMENT_3D('',#850,#670,#671);
#599=AXIS2_PLACEMENT_3D('',#858,#675,#676);
#600=AXIS2_PLACEMENT_3D('',#860,#677,#678);
#601=AXIS2_PLACEMENT_3D('',#864,#680,#681);
#602=AXIS2_PLACEMENT_3D('',#866,#682,#683);
#603=AXIS2_PLACEMENT_3D('',#868,#684,#685);
#604=AXIS2_PLACEMENT_3D('',#872,#687,#688);
#605=AXIS2_PLACEMENT_3D('',#874,#689,#690);
#606=AXIS2_PLACEMENT_3D('',#876,#692,#693);
#607=AXIS2_PLACEMENT_3D('',#880,#696,#697);
#608=AXIS2_PLACEMENT_3D('',#884,#699,#700);
#609=AXIS2_PLACEMENT_3D('',#886,#702,#703);
#610=AXIS2_PLACEMENT_3D('',#888,#705,#706);
#611=AXIS2_PLACEMENT_3D('',#892,#709,#710);
#612=AXIS2_PLACEMENT_3D('',#896,#713,#714);
#613=AXIS2_PLACEMENT_3D('',#899,#715,#716);
#614=AXIS2_PLACEMENT_3D('',#903,#718,#719);
#615=AXIS2_PLACEMENT_3D('',#907,#721,#722);
#616=AXIS2_PLACEMENT_3D('',#911,#724,#725);
#617=AXIS2_PLACEMENT_3D('',#913,#727,#728);
#618=AXIS2_PLACEMENT_3D('',#916,#729,#730);
#619=AXIS2_PLACEMENT_3D('',#920,#732,#733);
#620=AXIS2_PLACEMENT_3D('',#924,#735,#736);
#621=AXIS2_PLACEMENT_3D('',#928,#738,#739);
#622=AXIS2_PLACEMENT_3D('',#930,#741,#742);
#623=AXIS2_PLACEMENT_3D('',#932,#743,#744);
#624=AXIS2_PLACEMENT_3D('',#935,#746,#747);
#625=AXIS2_PLACEMENT_3D('',#937,#749,#750);
#626=AXIS2_PLACEMENT_3D('',#944,#755,#756);
#627=AXIS2_PLACEMENT_3D('',#946,#757,#758);
#628=AXIS2_PLACEMENT_3D('',#949,#760,#761);
#629=AXIS2_PLACEMENT_3D('',#950,#762,#763);
#630=AXIS2_PLACEMENT_3D('',#952,#764,#765);
#631=AXIS2_PLACEMENT_3D('',#955,#767,#768);
#632=AXIS2_PLACEMENT_3D('',#956,#769,#770);
#633=AXIS2_PLACEMENT_3D('',#958,#771,#772);
#634=AXIS2_PLACEMENT_3D('',#961,#774,#775);
#635=AXIS2_PLACEMENT_3D('',#963,#776,#777);
#636=AXIS2_PLACEMENT_3D('',#965,#779,#780);
#637=AXIS2_PLACEMENT_3D('',#968,#782,#783);
#638=AXIS2_PLACEMENT_3D('',#970,#785,#786);
#639=AXIS2_PLACEMENT_3D('',#974,#789,#790);
#640=AXIS2_PLACEMENT_3D('',#975,#791,#792);
#641=AXIS2_PLACEMENT_3D('',#977,#794,#795);
#642=AXIS2_PLACEMENT_3D('',#978,#796,#797);
#643=AXIS2_PLACEMENT_3D('',#980,#798,#799);
#644=AXIS2_PLACEMENT_3D('',#982,#801,#802);
#645=AXIS2_PLACEMENT_3D('',#984,#804,#805);
#646=AXIS2_PLACEMENT_3D('',#985,#806,#807);
#647=AXIS2_PLACEMENT_3D('',#989,#809,#810);
#648=AXIS2_PLACEMENT_3D('',#991,#812,#813);
#649=AXIS2_PLACEMENT_3D('',#992,#814,#815);
#650=AXIS2_PLACEMENT_3D('',#993,#816,#817);
#651=AXIS2_PLACEMENT_3D('',#996,#818,#819);
#652=AXIS2_PLACEMENT_3D('',#999,#822,#823);
#653=AXIS2_PLACEMENT_3D('',#1001,#824,#825);
#654=AXIS2_PLACEMENT_3D('',#1003,#827,#828);
#655=AXIS2_PLACEMENT_3D('',#1004,#829,#830);
#656=AXIS2_PLACEMENT_3D('',#1005,#831,#832);
#657=AXIS2_PLACEMENT_3D('',#1006,#833,#834);
#658=AXIS2_PLACEMENT_3D('',#1007,#835,#836);
#659=AXIS2_PLACEMENT_3D('',#1009,#838,#839);
#660=DIRECTION('axis',(0.,0.,1.));
#661=DIRECTION('refdir',(1.,0.,0.));
#662=DIRECTION('center_axis',(0.,0.,-1.));
#663=DIRECTION('ref_axis',(0.707106781186548,-0.707106781186547,0.));
#664=DIRECTION('center_axis',(0.,0.,1.));
#665=DIRECTION('ref_axis',(0.707106781186548,-0.707106781186547,0.));
#666=DIRECTION('',(0.,0.,1.));
#667=DIRECTION('center_axis',(0.,0.,-1.));
#668=DIRECTION('ref_axis',(0.707106781186548,-0.707106781186547,0.));
#669=DIRECTION('',(0.,0.,-1.));
#670=DIRECTION('center_axis',(0.,0.,1.));
#671=DIRECTION('ref_axis',(1.,0.,0.));
#672=DIRECTION('',(-1.,0.,0.));
#673=DIRECTION('',(0.,1.,0.));
#674=DIRECTION('',(1.,0.,0.));
#675=DIRECTION('center_axis',(0.,0.,1.));
#676=DIRECTION('ref_axis',(-0.581248869785195,-0.813725845339469,0.));
#677=DIRECTION('center_axis',(0.,0.,1.));
#678=DIRECTION('ref_axis',(0.999874185471427,-0.0158623210107995,0.));
#679=DIRECTION('',(-0.0158623210107997,-0.999874185471427,0.));
#680=DIRECTION('center_axis',(0.,0.,1.));
#681=DIRECTION('ref_axis',(-0.290972118539712,0.9567315329979,0.));
#682=DIRECTION('center_axis',(0.,0.,-1.));
#683=DIRECTION('ref_axis',(-1.,0.,0.));
#684=DIRECTION('center_axis',(0.,0.,1.));
#685=DIRECTION('ref_axis',(0.874443450161877,0.485127460023644,0.));
#686=DIRECTION('',(0.683963286499874,0.729516430740454,0.));
#687=DIRECTION('center_axis',(0.,0.,1.));
#688=DIRECTION('ref_axis',(0.397515228324731,-0.917595577174354,0.));
#689=DIRECTION('center_axis',(0.,0.,-1.));
#690=DIRECTION('ref_axis',(1.,0.,0.));
#691=DIRECTION('',(0.,-1.,0.));
#692=DIRECTION('center_axis',(0.,-1.,0.));
#693=DIRECTION('ref_axis',(-1.,0.,0.));
#694=DIRECTION('',(1.,0.,0.));
#695=DIRECTION('',(0.,0.,-1.));
#696=DIRECTION('center_axis',(0.,0.,-1.));
#697=DIRECTION('ref_axis',(1.,0.,0.));
#698=DIRECTION('',(0.,0.,1.));
#699=DIRECTION('center_axis',(0.,0.,1.));
#700=DIRECTION('ref_axis',(1.,0.,0.));
#701=DIRECTION('',(0.,0.,-1.));
#702=DIRECTION('center_axis',(1.,0.,0.));
#703=DIRECTION('ref_axis',(0.,-1.,0.));
#704=DIRECTION('',(0.,1.,0.));
#705=DIRECTION('center_axis',(-1.,0.,0.));
#706=DIRECTION('ref_axis',(0.,1.,0.));
#707=DIRECTION('',(0.,-1.,0.));
#708=DIRECTION('',(0.,0.,1.));
#709=DIRECTION('center_axis',(0.,-1.,0.));
#710=DIRECTION('ref_axis',(1.,0.,0.));
#711=DIRECTION('',(1.,0.,0.));
#712=DIRECTION('',(0.,0.,1.));
#713=DIRECTION('center_axis',(0.51584601516358,-0.483635077966697,-0.707106781186549));
#714=DIRECTION('ref_axis',(-0.807872992547331,0.,-0.589356622014736));
#715=DIRECTION('center_axis',(-0.51584601516358,0.483635077966697,0.707106781186549));
#716=DIRECTION('ref_axis',(-0.515846015163583,0.483635077966698,-0.707106781186546));
#717=DIRECTION('',(-0.683963286499874,-0.729516430740454,-1.57009245868377E-16));
#718=DIRECTION('center_axis',(-0.51584601516358,0.483635077966697,0.707106781186549));
#719=DIRECTION('ref_axis',(0.515846015163583,-0.483635077966698,0.707106781186546));
#720=DIRECTION('',(-0.683963286499874,-0.729516430740454,0.));
#721=DIRECTION('center_axis',(-0.51584601516358,0.483635077966697,0.707106781186549));
#722=DIRECTION('ref_axis',(-0.515846015163582,0.483635077966699,-0.707106781186546));
#723=DIRECTION('',(0.683963286499874,0.729516430740454,0.));
#724=DIRECTION('center_axis',(-0.51584601516358,0.483635077966697,0.707106781186549));
#725=DIRECTION('ref_axis',(-0.515846015163582,0.483635077966699,-0.707106781186546));
#726=DIRECTION('',(-0.683963286499874,-0.729516430740454,0.));
#727=DIRECTION('center_axis',(0.515846015163581,-0.483635077966698,0.707106781186548));
#728=DIRECTION('ref_axis',(0.80787299254733,0.,-0.589356622014737));
#729=DIRECTION('center_axis',(-0.515846015163581,0.483635077966698,-0.707106781186548));
#730=DIRECTION('ref_axis',(0.515846015163582,-0.483635077966698,-0.707106781186547));
#731=DIRECTION('',(0.683963286499874,0.729516430740454,-7.85046229341887E-17));
#732=DIRECTION('center_axis',(-0.515846015163581,0.483635077966698,-0.707106781186548));
#733=DIRECTION('ref_axis',(-0.515846015163582,0.483635077966698,0.707106781186547));
#734=DIRECTION('',(0.683963286499874,0.729516430740454,0.));
#735=DIRECTION('center_axis',(-0.515846015163581,0.483635077966698,-0.707106781186548));
#736=DIRECTION('ref_axis',(-0.515846015163581,0.483635077966699,0.707106781186547));
#737=DIRECTION('',(-0.683963286499874,-0.729516430740454,0.));
#738=DIRECTION('center_axis',(-0.515846015163581,0.483635077966698,-0.707106781186548));
#739=DIRECTION('ref_axis',(-0.515846015163582,0.483635077966699,0.707106781186547));
#740=DIRECTION('',(0.683963286499874,0.729516430740454,0.));
#741=DIRECTION('center_axis',(0.,0.,1.));
#742=DIRECTION('ref_axis',(-0.986688990017979,-0.162618685818387,0.));
#743=DIRECTION('center_axis',(0.,0.,-1.));
#744=DIRECTION('ref_axis',(-0.986688990017979,-0.162618685818387,0.));
#745=DIRECTION('',(0.,0.,1.));
#746=DIRECTION('center_axis',(0.,0.,1.));
#747=DIRECTION('ref_axis',(-0.986688990017979,-0.162618685818387,0.));
#748=DIRECTION('',(0.,0.,-1.));
#749=DIRECTION('center_axis',(0.729516430740454,-0.683963286499874,0.));
#750=DIRECTION('ref_axis',(0.683963286499874,0.729516430740454,0.));
#751=DIRECTION('',(0.,0.,-1.));
#752=DIRECTION('',(0.683963286499874,0.729516430740454,0.));
#753=DIRECTION('',(0.,0.,1.));
#754=DIRECTION('',(0.,0.,-1.));
#755=DIRECTION('center_axis',(0.,0.,1.));
#756=DIRECTION('ref_axis',(0.0987498673797536,0.995112286976943,0.));
#757=DIRECTION('center_axis',(0.,0.,-1.));
#758=DIRECTION('ref_axis',(0.0987498673797536,0.995112286976943,0.));
#759=DIRECTION('',(0.,0.,1.));
#760=DIRECTION('center_axis',(0.,0.,1.));
#761=DIRECTION('ref_axis',(0.0987498673797536,0.995112286976943,0.));
#762=DIRECTION('center_axis',(0.,0.,1.));
#763=DIRECTION('ref_axis',(-0.729516430740454,0.683963286499874,0.));
#764=DIRECTION('center_axis',(0.,0.,-1.));
#765=DIRECTION('ref_axis',(-0.729516430740454,0.683963286499874,0.));
#766=DIRECTION('',(0.,0.,1.));
#767=DIRECTION('center_axis',(0.,0.,1.));
#768=DIRECTION('ref_axis',(-0.729516430740454,0.683963286499874,0.));
#769=DIRECTION('center_axis',(0.,0.,1.));
#770=DIRECTION('ref_axis',(1.,0.,0.));
#771=DIRECTION('center_axis',(0.,0.,1.));
#772=DIRECTION('ref_axis',(0.729516430740455,-0.683963286499873,0.));
#773=DIRECTION('',(0.683963286499873,0.729516430740455,0.));
#774=DIRECTION('center_axis',(0.,0.,1.));
#775=DIRECTION('ref_axis',(-0.729516430740455,0.683963286499873,0.));
#776=DIRECTION('center_axis',(0.,0.,-1.));
#777=DIRECTION('ref_axis',(0.729516430740454,-0.683963286499873,0.));
#778=DIRECTION('',(-0.683963286499873,-0.729516430740455,0.));
#779=DIRECTION('center_axis',(0.,0.,1.));
#780=DIRECTION('ref_axis',(0.729516430740455,-0.683963286499873,0.));
#781=DIRECTION('',(0.,0.,-1.));
#782=DIRECTION('center_axis',(0.,0.,-1.));
#783=DIRECTION('ref_axis',(0.729516430740455,-0.683963286499873,0.));
#784=DIRECTION('',(0.,0.,1.));
#785=DIRECTION('center_axis',(-0.729516430740455,0.683963286499873,0.));
#786=DIRECTION('ref_axis',(-0.683963286499873,-0.729516430740455,0.));
#787=DIRECTION('',(-0.683963286499873,-0.729516430740455,0.));
#788=DIRECTION('',(0.,0.,1.));
#789=DIRECTION('center_axis',(0.,0.,1.));
#790=DIRECTION('ref_axis',(-0.729516430740455,0.683963286499873,0.));
#791=DIRECTION('center_axis',(0.,0.,-1.));
#792=DIRECTION('ref_axis',(-0.729516430740455,0.683963286499873,0.));
#793=DIRECTION('',(0.,0.,1.));
#794=DIRECTION('center_axis',(0.729516430740454,-0.683963286499874,0.));
#795=DIRECTION('ref_axis',(0.683963286499874,0.729516430740454,0.));
#796=DIRECTION('center_axis',(0.,0.,1.));
#797=DIRECTION('ref_axis',(0.729516430740454,-0.683963286499873,0.));
#798=DIRECTION('center_axis',(0.,0.,1.));
#799=DIRECTION('ref_axis',(0.729516430740454,-0.683963286499873,0.));
#800=DIRECTION('',(0.,0.,1.));
#801=DIRECTION('center_axis',(0.729516430740455,-0.683963286499873,0.));
#802=DIRECTION('ref_axis',(0.683963286499873,0.729516430740455,0.));
#803=DIRECTION('',(0.683963286499873,0.729516430740455,0.));
#804=DIRECTION('center_axis',(0.,0.,1.));
#805=DIRECTION('ref_axis',(1.,0.,0.));
#806=DIRECTION('center_axis',(0.,0.,1.));
#807=DIRECTION('ref_axis',(0.999874185471427,-0.0158623210107995,0.));
#808=DIRECTION('',(0.,0.,1.));
#809=DIRECTION('center_axis',(0.,0.,-1.));
#810=DIRECTION('ref_axis',(0.999874185471427,-0.0158623210107995,0.));
#811=DIRECTION('',(0.,0.,-1.));
#812=DIRECTION('center_axis',(0.,0.,1.));
#813=DIRECTION('ref_axis',(-0.581248869785195,-0.813725845339469,0.));
#814=DIRECTION('center_axis',(0.,0.,1.));
#815=DIRECTION('ref_axis',(-0.581248869785195,-0.813725845339469,0.));
#816=DIRECTION('center_axis',(0.,0.,1.));
#817=DIRECTION('ref_axis',(-0.290972118539712,0.9567315329979,0.));
#818=DIRECTION('center_axis',(0.,0.,-1.));
#819=DIRECTION('ref_axis',(-0.290972118539712,0.9567315329979,0.));
#820=DIRECTION('',(0.,0.,-1.));
#821=DIRECTION('',(0.,0.,1.));
#822=DIRECTION('center_axis',(0.,0.,1.));
#823=DIRECTION('ref_axis',(-1.,0.,0.));
#824=DIRECTION('center_axis',(0.,0.,-1.));
#825=DIRECTION('ref_axis',(-1.,0.,0.));
#826=DIRECTION('',(0.,0.,1.));
#827=DIRECTION('center_axis',(0.,0.,1.));
#828=DIRECTION('ref_axis',(0.874443450161877,0.485127460023644,0.));
#829=DIRECTION('center_axis',(0.,0.,-1.));
#830=DIRECTION('ref_axis',(0.874443450161877,0.485127460023644,0.));
#831=DIRECTION('center_axis',(0.,0.,1.));
#832=DIRECTION('ref_axis',(0.397515228324731,-0.917595577174354,0.));
#833=DIRECTION('center_axis',(0.,0.,-1.));
#834=DIRECTION('ref_axis',(0.397515228324731,-0.917595577174354,0.));
#835=DIRECTION('center_axis',(-0.999874185471427,0.0158623210107997,0.));
#836=DIRECTION('ref_axis',(-0.0158623210107997,-0.999874185471427,0.));
#837=DIRECTION('',(-0.0158623210107997,-0.999874185471427,0.));
#838=DIRECTION('center_axis',(0.,0.,1.));
#839=DIRECTION('ref_axis',(1.,0.,0.));
#840=CARTESIAN_POINT('',(0.,0.,0.));
#841=CARTESIAN_POINT('Origin',(0.289370078740151,0.287398246530972,1.5));
#842=CARTESIAN_POINT('',(0.289370078740151,0.248028167790815,0.));
#843=CARTESIAN_POINT('',(0.328740157480308,0.287398246530972,0.));
#844=CARTESIAN_POINT('Origin',(0.289370078740151,0.287398246530972,0.));
#845=CARTESIAN_POINT('',(0.328740157480308,0.287398246530972,1.5));
#846=CARTESIAN_POINT('',(0.328740157480308,0.287398246530972,1.5));
#847=CARTESIAN_POINT('',(0.289370078740151,0.248028167790815,1.5));
#848=CARTESIAN_POINT('Origin',(0.289370078740151,0.287398246530972,1.5));
#849=CARTESIAN_POINT('',(0.289370078740151,0.248028167790815,1.5));
#850=CARTESIAN_POINT('Origin',(0.32674453936921,1.04097937468384,0.));
#851=CARTESIAN_POINT('',(0.249999999999993,0.248028167790815,0.));
#852=CARTESIAN_POINT('',(0.249999999999993,0.248028167790815,0.));
#853=CARTESIAN_POINT('',(0.249999999999993,0.444878561491602,0.));
#854=CARTESIAN_POINT('',(0.249999999999993,0.444878561491602,0.));
#855=CARTESIAN_POINT('',(0.187500000000049,0.444878561491602,0.));
#856=CARTESIAN_POINT('',(0.187500000000049,0.444878561491602,0.));
#857=CARTESIAN_POINT('',(-0.092140115440741,0.51756800389233,0.));
#858=CARTESIAN_POINT('Origin',(0.312500000000036,1.49999999999999,0.));
#859=CARTESIAN_POINT('',(-0.335855245268481,0.887845247868849,0.));
#860=CARTESIAN_POINT('Origin',(0.0577960088541278,0.881600239596881,0.));
#861=CARTESIAN_POINT('',(-0.331737844621386,1.14738372369914,0.));
#862=CARTESIAN_POINT('',(-0.321557967275535,1.78906765901051,0.));
#863=CARTESIAN_POINT('',(-0.188304100381054,1.1910064318385,0.));
#864=CARTESIAN_POINT('Origin',(-0.253007593796864,1.14613472204475,0.));
#865=CARTESIAN_POINT('',(0.58536701479304,0.877928025424946,0.));
#866=CARTESIAN_POINT('Origin',(0.437499999999982,1.62499999999998,0.));
#867=CARTESIAN_POINT('',(0.658097603913432,0.746830958110633,0.));
#868=CARTESIAN_POINT('Origin',(0.600655365272452,0.800686335000387,0.));
#869=CARTESIAN_POINT('',(0.398330901950089,0.469763342082163,0.));
#870=CARTESIAN_POINT('',(0.375000000000049,0.444878561491602,0.));
#871=CARTESIAN_POINT('',(0.383273355465777,0.457259467387762,0.));
#872=CARTESIAN_POINT('Origin',(0.340888663309108,0.523618718971917,0.));
#873=CARTESIAN_POINT('',(0.328740157480308,0.357720590011529,0.));
#874=CARTESIAN_POINT('Origin',(0.446850393700781,0.357720590011529,0.));
#875=CARTESIAN_POINT('',(0.328740157480308,0.248028167790815,0.));
#876=CARTESIAN_POINT('Origin',(0.328740157480308,0.248028167790815,1.5));
#877=CARTESIAN_POINT('',(0.249999999999993,0.248028167790815,1.5));
#878=CARTESIAN_POINT('',(0.249999999999993,0.248028167790815,1.5));
#879=CARTESIAN_POINT('',(0.249999999999993,0.248028167790815,1.5));
#880=CARTESIAN_POINT('Origin',(0.446850393700781,0.357720590011529,0.));
#881=CARTESIAN_POINT('',(0.383273355465777,0.457259467387762,1.5));
#882=CARTESIAN_POINT('',(0.383273355465777,0.457259467387762,0.));
#883=CARTESIAN_POINT('',(0.328740157480308,0.357720590011529,1.5));
#884=CARTESIAN_POINT('Origin',(0.446850393700781,0.357720590011529,1.5));
#885=CARTESIAN_POINT('',(0.328740157480308,0.357720590011529,0.));
#886=CARTESIAN_POINT('Origin',(0.328740157480308,0.444878561491602,1.5));
#887=CARTESIAN_POINT('',(0.328740157480308,0.248028167790815,1.5));
#888=CARTESIAN_POINT('Origin',(0.249999999999993,0.248028167790815,1.5));
#889=CARTESIAN_POINT('',(0.249999999999993,0.444878561491602,1.5));
#890=CARTESIAN_POINT('',(0.249999999999993,0.444878561491602,1.5));
#891=CARTESIAN_POINT('',(0.249999999999993,0.444878561491602,0.75));
#892=CARTESIAN_POINT('Origin',(0.187500000000049,0.444878561491602,0.));
#893=CARTESIAN_POINT('',(0.187500000000049,0.444878561491602,1.5));
#894=CARTESIAN_POINT('',(0.187500000000049,0.444878561491602,1.5));
#895=CARTESIAN_POINT('',(0.187500000000049,0.444878561491602,0.));
#896=CARTESIAN_POINT('Origin',(0.458420828040622,0.512269730146122,0.636811023622047));
#897=CARTESIAN_POINT('',(0.590641356770498,0.631710744414789,0.651574803149606));
#898=CARTESIAN_POINT('',(0.580797132782486,0.624088962203622,0.649606299212598));
#899=CARTESIAN_POINT('Origin',(0.609518252102976,0.597161273758745,0.688976377952756));
#900=CARTESIAN_POINT('',(0.500014067447856,0.537925604242151,0.649606299212598));
#901=CARTESIAN_POINT('',(0.483884629633819,0.520721917821844,0.649606299212598));
#902=CARTESIAN_POINT('',(0.493041955391892,0.527611053186496,0.651574803149606));
#903=CARTESIAN_POINT('Origin',(0.528735186768346,0.510997915797274,0.688976377952756));
#904=CARTESIAN_POINT('',(0.457303925128042,0.48949280796138,0.651574803149606));
#905=CARTESIAN_POINT('',(0.469191247785806,0.502171846979294,0.651574803149606));
#906=CARTESIAN_POINT('',(0.409690463412957,0.481879470091864,0.622047244094488));
#907=CARTESIAN_POINT('Origin',(0.438411582733447,0.454951781646987,0.661417322834645));
#908=CARTESIAN_POINT('',(0.630911169768698,0.717833860176737,0.622047244094488));
#909=CARTESIAN_POINT('',(0.447650408295439,0.522367613312951,0.622047244094488));
#910=CARTESIAN_POINT('',(0.626379387034349,0.669828989639905,0.651574803149606));
#911=CARTESIAN_POINT('Origin',(0.659632289089189,0.69090617173186,0.661417322834645));
#912=CARTESIAN_POINT('',(0.469191247785806,0.502171846979294,0.651574803149606));
#913=CARTESIAN_POINT('Origin',(0.458420828040622,0.512269730146122,0.863188976377953));
#914=CARTESIAN_POINT('',(0.493041955391892,0.527611053186496,0.848425196850394));
#915=CARTESIAN_POINT('',(0.500014067447856,0.537925604242151,0.850393700787402));
#916=CARTESIAN_POINT('Origin',(0.528735186768346,0.510997915797274,0.811023622047244));
#917=CARTESIAN_POINT('',(0.580797132782486,0.624088962203622,0.850393700787402));
#918=CARTESIAN_POINT('',(0.483884629633819,0.520721917821844,0.850393700787402));
#919=CARTESIAN_POINT('',(0.590641356770498,0.631710744414789,0.848425196850394));
#920=CARTESIAN_POINT('Origin',(0.609518252102976,0.597161273758745,0.811023622047244));
#921=CARTESIAN_POINT('',(0.626379387034349,0.669828989639905,0.848425196850394));
#922=CARTESIAN_POINT('',(0.469191247785806,0.502171846979294,0.848425196850394));
#923=CARTESIAN_POINT('',(0.630911169768698,0.717833860176737,0.877952755905512));
#924=CARTESIAN_POINT('Origin',(0.659632289089189,0.69090617173186,0.838582677165355));
#925=CARTESIAN_POINT('',(0.409690463412957,0.481879470091864,0.877952755905512));
#926=CARTESIAN_POINT('',(0.447650408295439,0.522367613312951,0.877952755905512));
#927=CARTESIAN_POINT('',(0.457303925128042,0.48949280796138,0.848425196850394));
#928=CARTESIAN_POINT('Origin',(0.438411582733447,0.454951781646987,0.838582677165355));
#929=CARTESIAN_POINT('',(0.469191247785806,0.502171846979294,0.848425196850394));
#930=CARTESIAN_POINT('Origin',(0.659632289089189,0.69090617173186,0.75));
#931=CARTESIAN_POINT('',(0.641071534649851,0.656185839149224,0.651574803149606));
#932=CARTESIAN_POINT('Origin',(0.659632289089189,0.69090617173186,0.651574803149606));
#933=CARTESIAN_POINT('',(0.630911169768698,0.717833860176737,0.75));
#934=CARTESIAN_POINT('',(0.641071534649851,0.656185839149224,0.848425196850394));
#935=CARTESIAN_POINT('Origin',(0.659632289089189,0.69090617173186,0.848425196850394));
#936=CARTESIAN_POINT('',(0.641071534649851,0.656185839149224,0.75));
#937=CARTESIAN_POINT('Origin',(0.375000000000049,0.444878561491602,0.));
#938=CARTESIAN_POINT('',(0.658097603913432,0.746830958110633,1.5));
#939=CARTESIAN_POINT('',(0.658097603913432,0.746830958110633,0.));
#940=CARTESIAN_POINT('',(0.398330901950089,0.469763342082163,1.5));
#941=CARTESIAN_POINT('',(0.375000000000049,0.444878561491602,1.5));
#942=CARTESIAN_POINT('',(0.398330901950089,0.469763342082163,0.));
#943=CARTESIAN_POINT('',(0.409690463412957,0.481879470091864,0.75));
#944=CARTESIAN_POINT('Origin',(0.438411582733447,0.454951781646987,0.75));
#945=CARTESIAN_POINT('',(0.471864769413039,0.475709609110057,0.651574803149606));
#946=CARTESIAN_POINT('Origin',(0.438411582733447,0.454951781646987,0.651574803149606));
#947=CARTESIAN_POINT('',(0.471864769413039,0.475709609110057,0.848425196850394));
#948=CARTESIAN_POINT('',(0.471864769413039,0.475709609110057,0.75));
#949=CARTESIAN_POINT('Origin',(0.438411582733447,0.454951781646987,0.848425196850394));
#950=CARTESIAN_POINT('Origin',(0.528735186768346,0.510997915797274,0.75));
#951=CARTESIAN_POINT('',(0.57756108961318,0.465220845440984,0.651574803149606));
#952=CARTESIAN_POINT('Origin',(0.528735186768346,0.510997915797274,0.651574803149606));
#953=CARTESIAN_POINT('',(0.57756108961318,0.465220845440984,0.848425196850394));
#954=CARTESIAN_POINT('',(0.57756108961318,0.465220845440984,0.75));
#955=CARTESIAN_POINT('Origin',(0.528735186768346,0.510997915797274,0.848425196850394));
#956=CARTESIAN_POINT('Origin',(0.569126719435661,0.55407959477801,0.651574803149606));
#957=CARTESIAN_POINT('',(0.557456306088836,0.484070227352397,0.651574803149606));
#958=CARTESIAN_POINT('Origin',(0.528735186768346,0.510997915797274,0.651574803149606));
#959=CARTESIAN_POINT('',(0.638239371423467,0.570233585313868,0.651574803149606));
#960=CARTESIAN_POINT('',(0.638239371423467,0.570233585313868,0.651574803149606));
#961=CARTESIAN_POINT('Origin',(0.609518252102976,0.597161273758745,0.651574803149606));
#962=CARTESIAN_POINT('',(0.65834415494781,0.551384203402454,0.651574803149606));
#963=CARTESIAN_POINT('Origin',(0.609518252102976,0.597161273758745,0.651574803149606));
#964=CARTESIAN_POINT('',(0.57756108961318,0.465220845440984,0.651574803149606));
#965=CARTESIAN_POINT('Origin',(0.528735186768346,0.510997915797274,0.75));
#966=CARTESIAN_POINT('',(0.500014067447856,0.537925604242151,0.75));
#967=CARTESIAN_POINT('',(0.557456306088836,0.484070227352397,0.848425196850394));
#968=CARTESIAN_POINT('Origin',(0.528735186768346,0.510997915797274,0.848425196850394));
#969=CARTESIAN_POINT('',(0.557456306088836,0.484070227352397,0.75));
#970=CARTESIAN_POINT('Origin',(0.638239371423467,0.570233585313868,0.75));
#971=CARTESIAN_POINT('',(0.638239371423467,0.570233585313868,0.848425196850394));
#972=CARTESIAN_POINT('',(0.638239371423467,0.570233585313868,0.848425196850394));
#973=CARTESIAN_POINT('',(0.638239371423467,0.570233585313868,0.75));
#974=CARTESIAN_POINT('Origin',(0.609518252102976,0.597161273758745,0.75));
#975=CARTESIAN_POINT('Origin',(0.609518252102976,0.597161273758745,0.848425196850394));
#976=CARTESIAN_POINT('',(0.580797132782487,0.624088962203623,0.75));
#977=CARTESIAN_POINT('Origin',(0.500014067447856,0.537925604242151,0.75));
#978=CARTESIAN_POINT('Origin',(0.609518252102976,0.597161273758745,0.75));
#979=CARTESIAN_POINT('',(0.65834415494781,0.551384203402454,0.848425196850394));
#980=CARTESIAN_POINT('Origin',(0.609518252102976,0.597161273758745,0.848425196850394));
#981=CARTESIAN_POINT('',(0.65834415494781,0.551384203402454,0.75));
#982=CARTESIAN_POINT('Origin',(0.57756108961318,0.465220845440984,0.75));
#983=CARTESIAN_POINT('',(0.57756108961318,0.465220845440984,0.848425196850394));
#984=CARTESIAN_POINT('Origin',(0.569126719435661,0.55407959477801,0.848425196850394));
#985=CARTESIAN_POINT('Origin',(0.0577960088541278,0.881600239596881,0.));
#986=CARTESIAN_POINT('',(-0.092140115440741,0.51756800389233,1.5));
#987=CARTESIAN_POINT('',(-0.0921401154407409,0.51756800389233,0.));
#988=CARTESIAN_POINT('',(-0.335855245268481,0.887845247868849,1.5));
#989=CARTESIAN_POINT('Origin',(0.0577960088541278,0.881600239596881,1.5));
#990=CARTESIAN_POINT('',(-0.335855245268481,0.88784524786885,0.));
#991=CARTESIAN_POINT('Origin',(0.312500000000036,1.49999999999999,0.));
#992=CARTESIAN_POINT('Origin',(0.312500000000036,1.49999999999999,1.5));
#993=CARTESIAN_POINT('Origin',(-0.253007593796864,1.14613472204475,0.));
#994=CARTESIAN_POINT('',(-0.331737844621386,1.14738372369914,1.5));
#995=CARTESIAN_POINT('',(-0.188304100381054,1.1910064318385,1.5));
#996=CARTESIAN_POINT('Origin',(-0.253007593796864,1.14613472204475,1.5));
#997=CARTESIAN_POINT('',(-0.188304100381054,1.1910064318385,0.));
#998=CARTESIAN_POINT('',(-0.331737844621386,1.14738372369914,0.));
#999=CARTESIAN_POINT('Origin',(0.437499999999982,1.62499999999998,0.));
#1000=CARTESIAN_POINT('',(0.58536701479304,0.877928025424946,1.5));
#1001=CARTESIAN_POINT('Origin',(0.437499999999982,1.62499999999998,1.5));
#1002=CARTESIAN_POINT('',(0.58536701479304,0.877928025424946,0.));
#1003=CARTESIAN_POINT('Origin',(0.600655365272452,0.800686335000387,0.));
#1004=CARTESIAN_POINT('Origin',(0.600655365272452,0.800686335000387,1.5));
#1005=CARTESIAN_POINT('Origin',(0.340888663309108,0.523618718971917,0.));
#1006=CARTESIAN_POINT('Origin',(0.340888663309108,0.523618718971917,1.5));
#1007=CARTESIAN_POINT('Origin',(-0.323969144693439,1.63708018787607,0.));
#1008=CARTESIAN_POINT('',(-0.321557967275535,1.78906765901051,1.5));
#1009=CARTESIAN_POINT('Origin',(0.32674453936921,1.04097937468384,1.5));
#1010=UNCERTAINTY_MEASURE_WITH_UNIT(LENGTH_MEASURE(0.000393700787401575),
#1016,'DISTANCE_ACCURACY_VALUE',
'Maximum model space distance between geometric entities at asserted c
onnectivities');
#1011=UNCERTAINTY_MEASURE_WITH_UNIT(LENGTH_MEASURE(0.000393700787401575),
#1016,'DISTANCE_ACCURACY_VALUE',
'Maximum model space distance between geometric entities at asserted c
onnectivities');
#1012=(
GEOMETRIC_REPRESENTATION_CONTEXT(3)
GLOBAL_UNCERTAINTY_ASSIGNED_CONTEXT((#1010))
GLOBAL_UNIT_ASSIGNED_CONTEXT((#1016,#1020,#1021))
REPRESENTATION_CONTEXT('','3D')
);
#1013=(
GEOMETRIC_REPRESENTATION_CONTEXT(3)
GLOBAL_UNCERTAINTY_ASSIGNED_CONTEXT((#1011))
GLOBAL_UNIT_ASSIGNED_CONTEXT((#1016,#1020,#1021))
REPRESENTATION_CONTEXT('','3D')
);
#1014=DIMENSIONAL_EXPONENTS(1.,0.,0.,0.,0.,0.,0.);
#1015=DIMENSIONAL_EXPONENTS(0.,1.,0.,0.,0.,0.,0.);
#1016=(
CONVERSION_BASED_UNIT('inch',#1019)
LENGTH_UNIT()
NAMED_UNIT(#1014)
);
#1017=(
LENGTH_UNIT()
NAMED_UNIT(*)
SI_UNIT(.MILLI.,.METRE.)
);
#1018=(
LENGTH_UNIT()
NAMED_UNIT(*)
SI_UNIT(.CENTI.,.METRE.)
);
#1019=LENGTH_MEASURE_WITH_UNIT(LENGTH_MEASURE(25.4),#1017);
#1020=(
NAMED_UNIT(*)
PLANE_ANGLE_UNIT()
SI_UNIT($,.RADIAN.)
);
#1021=(
NAMED_UNIT(*)
SI_UNIT($,.STERADIAN.)
SOLID_ANGLE_UNIT()
);
#1022=SHAPE_DEFINITION_REPRESENTATION(#1023,#1024);
#1023=PRODUCT_DEFINITION_SHAPE('',$,#1026);
#1024=SHAPE_REPRESENTATION('',(#594),#1012);
#1025=PRODUCT_DEFINITION_CONTEXT('part definition',#1030,'design');
#1026=PRODUCT_DEFINITION('jigsaw wep lock','jigsaw wep lock',#1027,#1025);
#1027=PRODUCT_DEFINITION_FORMATION('',$,#1032);
#1028=PRODUCT_RELATED_PRODUCT_CATEGORY('jigsaw wep lock',
'jigsaw wep lock',(#1032));
#1029=APPLICATION_PROTOCOL_DEFINITION('international standard',
'automotive_design',2009,#1030);
#1030=APPLICATION_CONTEXT(
'Core Data for Automotive Mechanical Design Process');
#1031=PRODUCT_CONTEXT('part definition',#1030,'mechanical');
#1032=PRODUCT('jigsaw wep lock','jigsaw wep lock',$,(#1031));
#1033=PRESENTATION_STYLE_ASSIGNMENT((#1034));
#1034=SURFACE_STYLE_USAGE(.BOTH.,#1037);
#1035=SURFACE_STYLE_RENDERING_WITH_PROPERTIES($,#1041,(#1036));
#1036=SURFACE_STYLE_TRANSPARENT(0.);
#1037=SURFACE_SIDE_STYLE('',(#1038,#1035));
#1038=SURFACE_STYLE_FILL_AREA(#1039);
#1039=FILL_AREA_STYLE('',(#1040));
#1040=FILL_AREA_STYLE_COLOUR('',#1041);
#1041=COLOUR_RGB('',0.749019607843137,0.749019607843137,0.749019607843137);
ENDSEC;
END-ISO-10303-21;
